Coordinates
version=1
nRows=21
nColumns=33
inDegrees=yes

Units are S.I. units (second, meters, Newtons, ...)
Angles are in degrees.

endheader
time	ground_thorax_rot_x	ground_thorax_rot_y	ground_thorax_rot_z	ground_thorax_tx	ground_thorax_ty	ground_thorax_tz	clav_prot_r	clav_elev_r	scapula_abduction_r	scapula_elevation_r	scapula_upward_rot_r	scapula_winging_r	shoulder_elv_r	plane_of_elev_r	axial_rot_r	elbow_flexion_r	pro_sup_r	wrist_flex_r	wrist_dev_r	clav_prot_l	clav_elev_l	scapula_abduction_l	scapula_elevation_l	scapula_upward_rot_l	scapula_winging_l	shoulder_elv_l	plane_of_elev_l	axial_rot_l	elbow_flexion_l	pro_sup_l	wrist_flex_l	wrist_dev_l	
1.7800	20.235340	40.364639	7.121313	0.018313	1.018735	-0.047877	-20.324867	31.240910	-19.539836	22.217815	45.000000	-11.430529	-2.798929	-90.000000	32.750672	62.662000	1.288122	45.608110	-22.261009	16.897041	-1.169026	-45.000000	-2.046207	11.937318	22.371907	13.789317	-51.594171	-27.214386	60.981116	35.989738	-0.039793	-24.999933	
1.7900	20.362906	40.312636	7.091317	0.018326	1.018684	-0.047788	-20.257031	31.315718	-19.499649	22.291368	45.000000	-11.382261	-2.741059	-90.000000	32.692870	62.956602	1.239431	45.182054	-22.471065	16.931625	-1.448492	-45.000000	-1.857223	11.828607	22.296512	13.849741	-51.553449	-27.229781	61.171408	35.630619	-0.582851	-24.999879	
1.8000	20.415323	40.277543	7.094912	0.018310	1.018638	-0.047756	-20.206938	31.360129	-19.456902	22.336308	45.000000	-11.351014	-2.694378	-90.000000	32.646231	63.170329	1.227952	44.948651	-22.587971	16.947455	-1.608254	-45.000000	-1.745761	11.780047	22.254157	13.872558	-51.468301	-27.216931	61.343179	35.394127	-0.879435	-24.999784	
1.8100	20.473581	40.233064	7.091217	0.018303	1.018580	-0.047717	-20.150599	31.412452	-19.409783	22.388895	45.000000	-11.314275	-2.644455	-90.000000	32.596357	63.415671	1.228522	44.698210	-22.709662	16.968407	-1.773662	-45.000000	-1.634440	11.713812	22.209846	13.901604	-51.365916	-27.181321	61.534118	35.117410	-1.180329	-24.999613	
1.8200	20.508721	40.186832	7.092427	0.018290	1.018507	-0.047699	-20.095432	31.458580	-19.356191	22.435970	45.000000	-11.279918	-2.594474	-90.000000	32.546419	63.658725	1.256268	44.510940	-22.797800	16.988216	-1.896295	-45.000000	-1.555945	11.649465	22.177770	13.920885	-51.223256	-27.105476	61.738575	34.847402	-1.369043	-24.999307	
1.8300	20.523468	40.145901	7.101856	0.018264	1.018449	-0.047699	-20.041862	31.498873	-19.297626	22.477795	45.000000	-11.248050	-2.546106	-90.000000	32.498091	63.890364	1.305260	44.375215	-22.858608	17.008470	-1.992144	-45.000000	-1.499122	11.582168	22.153324	13.938631	-51.036575	-26.994563	61.947184	34.577131	-1.434546	-24.998758	
1.8400	20.525344	40.110908	7.117621	0.018224	1.018402	-0.047714	-19.988423	31.535418	-19.234162	22.516373	45.000000	-11.217569	-2.497918	-90.000000	32.449940	64.117126	1.372843	44.274911	-22.900758	17.031978	-2.073340	-45.000000	-1.457019	11.502604	22.133672	13.962158	-50.804992	-26.852974	62.163978	34.289566	-1.380894	-24.997776	
1.8500	20.531833	40.087536	7.136083	0.018162	1.018386	-0.047730	-19.932296	31.573929	-19.167979	22.557056	45.000000	-11.185674	-2.448276	-90.000000	32.400339	64.343240	1.457996	44.173410	-22.941876	17.070298	-2.175514	-45.000000	-1.412423	11.371351	22.110253	14.015259	-50.509489	-26.677221	62.388781	33.927536	-1.157591	-24.996013	
1.8600	20.556802	40.071509	7.151112	0.018090	1.018380	-0.047732	-19.870573	31.620326	-19.100750	22.605341	45.000000	-11.149199	-2.393775	-90.000000	32.345891	64.590198	1.553406	44.034208	-23.001590	17.125509	-2.317211	-45.000000	-1.352497	11.182104	22.077842	14.110297	-50.165004	-26.489144	62.632553	33.467283	-0.828095	-24.992870	
1.8700	20.594413	40.072847	7.167511	0.018010	1.018371	-0.047710	-19.808005	31.674883	-19.043032	22.660877	45.000000	-11.109564	-2.336142	-90.000000	32.288328	64.853024	1.667996	43.860397	-23.082728	17.198999	-2.498070	-45.000000	-1.279091	10.929330	22.036773	14.286338	-49.768104	-26.343521	62.904542	32.877313	-0.339991	-24.987197	
1.8800	20.623805	40.090514	7.193688	0.017937	1.018344	-0.047679	-19.750318	31.727666	-18.993455	22.714261	45.000000	-11.072214	-2.279011	-90.000000	32.231275	65.114925	1.788169	43.693694	-23.169366	17.274374	-2.682775	-45.000000	-1.204660	10.669563	21.994883	14.521640	-49.351200	-26.269439	63.194940	32.242632	0.224481	-24.977151	
1.8900	20.650364	40.116455	7.215562	0.017874	1.018275	-0.047632	-19.696995	31.774132	-18.944286	22.761570	45.000000	-11.038496	-2.221042	-90.000000	32.173393	65.387350	1.904396	43.539922	-23.263562	17.355007	-2.871574	-45.000000	-1.132474	10.390227	21.952484	14.820291	-48.900528	-26.253948	63.510863	31.560670	0.867685	-24.958836	
1.9000	20.659590	40.146488	7.239598	0.017824	1.018182	-0.047594	-19.650637	31.803913	-18.886516	22.793405	45.000000	-11.013002	-2.165969	-89.999999	32.118403	65.648411	1.985907	43.435756	-23.346429	17.424848	-3.038585	-45.000000	-1.067786	10.147265	21.914225	15.130138	-48.444965	-26.279901	63.823139	30.947600	1.471148	-24.926920	
1.9100	20.672279	40.185674	7.247666	0.017779	1.018058	-0.047546	-19.611333	31.821510	-18.826369	22.813699	45.000000	-10.993957	-2.110697	-89.999999	32.063219	65.915772	2.016965	43.365643	-23.428123	17.505127	-3.214131	-45.000000	-1.007773	9.864427	21.874818	15.495139	-47.922559	-26.334424	64.146684	30.328167	2.139726	-24.867263	
1.9200	20.684451	40.230890	7.250198	0.017734	1.017933	-0.047503	-19.575645	31.827265	-18.757246	22.823164	45.000000	-10.980425	-2.055431	-89.999998	32.008039	66.177615	1.981184	43.335418	-23.490953	17.589029	-3.392087	-45.000000	-0.950713	9.565784	21.834548	15.875003	-47.348596	-26.395523	64.454500	29.764911	2.801298	-24.767337	
1.9300	20.721433	40.284847	7.225946	0.017676	1.017787	-0.047437	-19.542222	31.830335	-18.689030	22.829988	45.000000	-10.968482	-1.989322	-89.999997	31.942033	66.469560	1.876914	43.306670	-23.531630	17.703778	-3.605197	-45.000000	-0.897879	9.152975	21.788541	16.322693	-46.648733	-26.450980	64.780268	29.141232	3.570095	-24.568977	
1.9400	20.759711	40.346365	7.205377	0.017611	1.017641	-0.047364	-19.507514	31.833131	-18.617711	22.836714	45.000000	-10.956473	-1.916529	-89.999995	31.869356	66.770924	1.718581	43.285668	-23.526213	17.829174	-3.828503	-45.000000	-0.849184	8.698027	21.740476	16.793230	-45.885009	-26.521963	65.095993	28.535024	4.338980	-24.273200	
1.9500	20.807528	40.429456	7.184508	0.017532	1.017480	-0.047262	-19.475048	31.844780	-18.563738	22.850933	45.000000	-10.942108	-1.831735	-89.999990	31.784711	67.097428	1.493248	43.250260	-23.460839	17.988257	-4.084724	-45.000000	-0.811382	8.113728	21.688003	17.365331	-44.993410	-26.654055	65.439243	27.848618	5.226655	-23.827291	
1.9600	20.838852	40.518113	7.188894	0.017455	1.017315	-0.047148	-19.439030	31.861965	-18.510203	22.870444	45.000000	-10.924931	-1.739102	-89.999983	31.692257	67.435164	1.225380	43.212269	-23.327850	18.150792	-4.340041	-45.000000	-0.780834	7.509686	21.635436	17.956925	-44.068917	-26.828288	65.767974	27.195468	6.074151	-23.292306	
1.9700	20.868383	40.621513	7.198102	0.017366	1.017139	-0.047012	-19.406187	31.884649	-18.471287	22.894413	45.000000	-10.906729	-1.628673	-89.999969	31.582063	67.800927	0.874847	43.151160	-23.103075	18.337394	-4.615015	-45.000000	-0.764845	6.804647	21.580266	18.612757	-43.033998	-27.035653	66.100961	26.521380	6.954753	-22.627879	
1.9800	20.877100	40.725222	7.229332	0.017285	1.016962	-0.046863	-19.372050	31.907771	-18.430102	22.918928	45.000000	-10.887951	-1.506957	-89.999945	31.460660	68.182890	0.483793	43.075880	-22.811577	18.518121	-4.886360	-45.000000	-0.750224	6.111150	21.523684	19.249009	-41.985423	-27.235074	66.385721	25.915116	7.753170	-21.949408	
